<svg width="40" height="50" viewBox="0 0 40 50" fill="none" xmlns="http://www.w3.org/2000/svg">
<path fill-rule="evenodd" clip-rule="evenodd" d="M10 17.5V10C10 7.34783 11.0536 4.80429 12.9289 2.92893C14.8043 1.05357 17.3478 0 20 0C22.6522 0 25.1957 1.05357 27.0711 2.92893C28.9464 4.80429 30 7.34783 30 10V17.5H37.5C38.1626 17.5 38.7981 17.763 39.2669 18.2313C39.7356 18.6996 39.9993 19.3349 40 19.9975V47.5C40.001 47.8286 39.937 48.1541 39.8117 48.4579C39.6864 48.7616 39.5023 49.0376 39.27 49.27C39.0376 49.5023 38.7616 49.6864 38.4579 49.8117C38.1541 49.937 37.8286 50.001 37.5 50H2.50001C1.8374 50 1.2019 49.7369 0.733128 49.2686C0.264359 48.8003 0.000673927 48.1651 1.1319e-05 47.5025V20C-0.00097889 19.6714 0.0630092 19.3459 0.188295 19.0421C0.313581 18.7384 0.497692 18.4624 0.730036 18.23C0.962379 17.9977 1.23837 17.8136 1.54213 17.6883C1.84589 17.563 2.17143 17.499 2.50001 17.5H10ZM13 17.5H27V10C27 8.14348 26.2625 6.36301 24.9497 5.05025C23.637 3.7375 21.8565 3 20 3C18.1435 3 16.363 3.7375 15.0503 5.05025C13.7375 6.36301 13 8.14348 13 10V17.5ZM3.00001 20.5V47H37V20.5H3.00001ZM18.5 34.6875C17.7104 34.3429 17.0635 33.7369 16.6682 32.9715C16.2728 32.206 16.1531 31.3278 16.3291 30.4844C16.5051 29.641 16.9662 28.884 17.6347 28.3406C18.3032 27.7972 19.1385 27.5006 20 27.5006C20.8615 27.5006 21.6968 27.7972 22.3653 28.3406C23.0338 28.884 23.4949 29.641 23.6709 30.4844C23.8469 31.3278 23.7272 32.206 23.3318 32.9715C22.9365 33.7369 22.2896 34.3429 21.5 34.6875V40H18.5V34.6875Z" fill="#01351C"/>
</svg>
